<svg width="50" height="50" viewBox="0 0 50 50" fill="none" xmlns="http://www.w3.org/2000/svg">
<circle cx="25" cy="25" r="25" fill="white"/>
<g clip-path="url(#clip0_33_110)">
<path d="M18.8074 25.8538H21.6783V37.6728C21.6783 37.9062 21.8674 38.0953 22.1008 38.0953H26.9685C27.2018 38.0953 27.3909 37.9062 27.3909 37.6728V25.9095H30.6912C30.9058 25.9095 31.0864 25.7485 31.1109 25.5353L31.6121 21.1842C31.6259 21.0644 31.588 20.9446 31.5079 20.8547C31.4277 20.7649 31.313 20.7134 31.1926 20.7134H27.3911V17.9859C27.3911 17.1637 27.8338 16.7467 28.707 16.7467C28.8315 16.7467 31.1926 16.7467 31.1926 16.7467C31.4259 16.7467 31.615 16.5576 31.615 16.3243V12.3303C31.615 12.097 31.4259 11.9079 31.1926 11.9079H27.7671C27.743 11.9067 27.6893 11.9048 27.6102 11.9048C27.0159 11.9048 24.9499 12.0215 23.318 13.5228C21.5099 15.1865 21.7612 17.1784 21.8213 17.5238V20.7133H18.8074C18.5741 20.7133 18.385 20.9024 18.385 21.1357V25.4313C18.385 25.6647 18.5741 25.8538 18.8074 25.8538Z" fill="#434B5F"/>
</g>
<defs>
<clipPath id="clip0_33_110">
<rect width="26.1905" height="26.1905" fill="white" transform="translate(11.9048 11.9048)"/>
</clipPath>
</defs>
</svg>
