<svg width="228" height="75" viewBox="0 0 228 75" fill="none" xmlns="http://www.w3.org/2000/svg">
<rect x="40.0893" y="40.0892" width="33.6607" height="33.6607" rx="5.44643" stroke="#6175A9" stroke-width="2.5"/>
<rect x="1.25" y="1.25" width="33.6607" height="33.6607" rx="5.44643" stroke="#6175A9" stroke-width="2.5"/>
<rect x="1.25" y="40.0892" width="33.6607" height="33.6607" rx="5.44643" stroke="#6175A9" stroke-width="2.5"/>
<rect x="40.0893" y="1.25" width="33.6607" height="33.6607" rx="5.44643" stroke="#6175A9" stroke-width="2.5"/>
<rect x="21.3393" y="21.3392" width="31.6518" height="31.6518" rx="5.44643" stroke="#F3A720" stroke-width="2.5"/>
<path d="M34.8214 20.7589H36.1607" stroke="#E13232" stroke-width="2.5" stroke-linecap="square"/>
<path d="M38.8393 53.5714H40.1786" stroke="#E13232" stroke-width="2.5" stroke-linecap="square"/>
<path d="M53.5714 34.8214L53.5714 36.1607" stroke="#E13232" stroke-width="2.5" stroke-linecap="square"/>
<path d="M20.7589 38.8392L20.7589 40.1785" stroke="#E13232" stroke-width="2.5" stroke-linecap="square"/>
<path d="M93.583 19.486C93.691 19.486 93.781 19.492 93.853 19.504C93.925 19.51 93.988 19.528 94.042 19.558C94.102 19.582 94.159 19.621 94.213 19.675C94.267 19.723 94.327 19.789 94.393 19.873L101.224 28.576C101.2 28.366 101.182 28.162 101.17 27.964C101.164 27.76 101.161 27.571 101.161 27.397V19.486H103.294V32.5H102.043C101.851 32.5 101.692 32.47 101.566 32.41C101.44 32.35 101.317 32.242 101.197 32.086L94.393 23.419C94.411 23.611 94.423 23.803 94.429 23.995C94.441 24.181 94.447 24.352 94.447 24.508V32.5H92.314V19.486H93.583ZM109.609 23.122C110.191 23.122 110.725 23.215 111.211 23.401C111.703 23.587 112.126 23.86 112.48 24.22C112.834 24.574 113.11 25.012 113.308 25.534C113.506 26.05 113.605 26.641 113.605 27.307C113.605 27.475 113.596 27.616 113.578 27.73C113.566 27.838 113.539 27.925 113.497 27.991C113.461 28.051 113.41 28.096 113.344 28.126C113.278 28.15 113.194 28.162 113.092 28.162H107.386C107.452 29.11 107.707 29.806 108.151 30.25C108.595 30.694 109.183 30.916 109.915 30.916C110.275 30.916 110.584 30.874 110.842 30.79C111.106 30.706 111.334 30.613 111.526 30.511C111.724 30.409 111.895 30.316 112.039 30.232C112.189 30.148 112.333 30.106 112.471 30.106C112.561 30.106 112.639 30.124 112.705 30.16C112.771 30.196 112.828 30.247 112.876 30.313L113.524 31.123C113.278 31.411 113.002 31.654 112.696 31.852C112.39 32.044 112.069 32.2 111.733 32.32C111.403 32.434 111.064 32.515 110.716 32.563C110.374 32.611 110.041 32.635 109.717 32.635C109.075 32.635 108.478 32.53 107.926 32.32C107.374 32.104 106.894 31.789 106.486 31.375C106.078 30.955 105.757 30.439 105.523 29.827C105.289 29.209 105.172 28.495 105.172 27.685C105.172 27.055 105.274 26.464 105.478 25.912C105.682 25.354 105.973 24.871 106.351 24.463C106.735 24.049 107.2 23.722 107.746 23.482C108.298 23.242 108.919 23.122 109.609 23.122ZM109.654 24.715C109.006 24.715 108.499 24.898 108.133 25.264C107.767 25.63 107.533 26.149 107.431 26.821H111.607C111.607 26.533 111.568 26.263 111.49 26.011C111.412 25.753 111.292 25.528 111.13 25.336C110.968 25.144 110.764 24.994 110.518 24.886C110.272 24.772 109.984 24.715 109.654 24.715ZM114.284 23.266H116.048C116.216 23.266 116.357 23.305 116.471 23.383C116.585 23.461 116.657 23.56 116.687 23.68L118.01 28.612C118.082 28.882 118.139 29.146 118.181 29.404C118.229 29.662 118.274 29.92 118.316 30.178C118.382 29.92 118.451 29.662 118.523 29.404C118.601 29.146 118.682 28.882 118.766 28.612L120.296 23.662C120.332 23.542 120.404 23.443 120.512 23.365C120.62 23.287 120.746 23.248 120.89 23.248H121.871C122.033 23.248 122.168 23.287 122.276 23.365C122.384 23.443 122.456 23.542 122.492 23.662L124.004 28.702C124.082 28.96 124.151 29.212 124.211 29.458C124.277 29.698 124.34 29.941 124.4 30.187C124.442 29.929 124.487 29.671 124.535 29.413C124.589 29.155 124.655 28.888 124.733 28.612L126.101 23.68C126.131 23.56 126.203 23.461 126.317 23.383C126.431 23.305 126.563 23.266 126.713 23.266H128.396L125.471 32.5H123.68C123.488 32.5 123.35 32.368 123.266 32.104L121.601 26.767C121.547 26.593 121.496 26.419 121.448 26.245C121.406 26.065 121.37 25.888 121.34 25.714C121.304 25.894 121.265 26.074 121.223 26.254C121.181 26.428 121.133 26.605 121.079 26.785L119.396 32.104C119.312 32.368 119.15 32.5 118.91 32.5H117.209L114.284 23.266ZM142.199 29.431C142.331 29.431 142.445 29.482 142.541 29.584L143.495 30.619C142.967 31.273 142.316 31.774 141.542 32.122C140.774 32.47 139.85 32.644 138.77 32.644C137.804 32.644 136.934 32.479 136.16 32.149C135.392 31.819 134.735 31.36 134.189 30.772C133.643 30.184 133.223 29.482 132.929 28.666C132.641 27.85 132.497 26.959 132.497 25.993C132.497 25.015 132.659 24.121 132.983 23.311C133.307 22.495 133.763 21.793 134.351 21.205C134.939 20.617 135.641 20.161 136.457 19.837C137.279 19.507 138.185 19.342 139.175 19.342C140.141 19.342 140.984 19.498 141.704 19.81C142.43 20.116 143.051 20.524 143.567 21.034L142.757 22.159C142.709 22.231 142.646 22.294 142.568 22.348C142.496 22.402 142.394 22.429 142.262 22.429C142.124 22.429 141.983 22.375 141.839 22.267C141.695 22.159 141.512 22.042 141.29 21.916C141.068 21.79 140.786 21.673 140.444 21.565C140.108 21.457 139.679 21.403 139.157 21.403C138.545 21.403 137.981 21.511 137.465 21.727C136.955 21.937 136.514 22.24 136.142 22.636C135.776 23.032 135.488 23.515 135.278 24.085C135.074 24.649 134.972 25.285 134.972 25.993C134.972 26.725 135.074 27.376 135.278 27.946C135.488 28.516 135.77 28.996 136.124 29.386C136.478 29.776 136.895 30.076 137.375 30.286C137.855 30.49 138.371 30.592 138.923 30.592C139.253 30.592 139.55 30.574 139.814 30.538C140.084 30.502 140.33 30.445 140.552 30.367C140.78 30.289 140.993 30.19 141.191 30.07C141.395 29.944 141.596 29.791 141.794 29.611C141.854 29.557 141.917 29.515 141.983 29.485C142.049 29.449 142.121 29.431 142.199 29.431ZM147.571 23.266V32.5H145.348V23.266H147.571ZM147.904 20.575C147.904 20.767 147.865 20.947 147.787 21.115C147.709 21.283 147.604 21.43 147.472 21.556C147.346 21.682 147.196 21.784 147.022 21.862C146.848 21.934 146.662 21.97 146.464 21.97C146.272 21.97 146.089 21.934 145.915 21.862C145.747 21.784 145.6 21.682 145.474 21.556C145.348 21.43 145.246 21.283 145.168 21.115C145.096 20.947 145.06 20.767 145.06 20.575C145.06 20.377 145.096 20.191 145.168 20.017C145.246 19.843 145.348 19.693 145.474 19.567C145.6 19.441 145.747 19.342 145.915 19.27C146.089 19.192 146.272 19.153 146.464 19.153C146.662 19.153 146.848 19.192 147.022 19.27C147.196 19.342 147.346 19.441 147.472 19.567C147.604 19.693 147.709 19.843 147.787 20.017C147.865 20.191 147.904 20.377 147.904 20.575ZM153.123 32.644C152.325 32.644 151.71 32.419 151.278 31.969C150.846 31.513 150.63 30.886 150.63 30.088V24.931H149.694C149.574 24.931 149.469 24.892 149.379 24.814C149.295 24.736 149.253 24.619 149.253 24.463V23.581L150.738 23.338L151.206 20.818C151.23 20.698 151.284 20.605 151.368 20.539C151.458 20.473 151.569 20.44 151.701 20.44H152.853V23.347H155.283V24.931H152.853V29.935C152.853 30.223 152.925 30.448 153.069 30.61C153.213 30.772 153.405 30.853 153.645 30.853C153.783 30.853 153.897 30.838 153.987 30.808C154.083 30.772 154.164 30.736 154.23 30.7C154.302 30.664 154.365 30.631 154.419 30.601C154.473 30.565 154.527 30.547 154.581 30.547C154.647 30.547 154.701 30.565 154.743 30.601C154.785 30.631 154.83 30.679 154.878 30.745L155.544 31.825C155.22 32.095 154.848 32.299 154.428 32.437C154.008 32.575 153.573 32.644 153.123 32.644ZM160.327 35.038C160.261 35.194 160.174 35.311 160.066 35.389C159.964 35.473 159.805 35.515 159.589 35.515H157.933L159.661 31.816L155.926 23.266H157.87C158.05 23.266 158.188 23.308 158.284 23.392C158.38 23.476 158.452 23.572 158.5 23.68L160.471 28.468C160.537 28.624 160.594 28.786 160.642 28.954C160.69 29.122 160.732 29.29 160.768 29.458C160.816 29.284 160.867 29.116 160.921 28.954C160.981 28.792 161.044 28.627 161.11 28.459L162.964 23.68C163.012 23.56 163.09 23.461 163.198 23.383C163.312 23.305 163.438 23.266 163.576 23.266H165.358L160.327 35.038ZM179.201 29.431C179.333 29.431 179.447 29.482 179.543 29.584L180.497 30.619C179.969 31.273 179.318 31.774 178.544 32.122C177.776 32.47 176.852 32.644 175.772 32.644C174.806 32.644 173.936 32.479 173.162 32.149C172.394 31.819 171.737 31.36 171.191 30.772C170.645 30.184 170.225 29.482 169.931 28.666C169.643 27.85 169.499 26.959 169.499 25.993C169.499 25.015 169.661 24.121 169.985 23.311C170.309 22.495 170.765 21.793 171.353 21.205C171.941 20.617 172.643 20.161 173.459 19.837C174.281 19.507 175.187 19.342 176.177 19.342C177.143 19.342 177.986 19.498 178.706 19.81C179.432 20.116 180.053 20.524 180.569 21.034L179.759 22.159C179.711 22.231 179.648 22.294 179.57 22.348C179.498 22.402 179.396 22.429 179.264 22.429C179.126 22.429 178.985 22.375 178.841 22.267C178.697 22.159 178.514 22.042 178.292 21.916C178.07 21.79 177.788 21.673 177.446 21.565C177.11 21.457 176.681 21.403 176.159 21.403C175.547 21.403 174.983 21.511 174.467 21.727C173.957 21.937 173.516 22.24 173.144 22.636C172.778 23.032 172.49 23.515 172.28 24.085C172.076 24.649 171.974 25.285 171.974 25.993C171.974 26.725 172.076 27.376 172.28 27.946C172.49 28.516 172.772 28.996 173.126 29.386C173.48 29.776 173.897 30.076 174.377 30.286C174.857 30.49 175.373 30.592 175.925 30.592C176.255 30.592 176.552 30.574 176.816 30.538C177.086 30.502 177.332 30.445 177.554 30.367C177.782 30.289 177.995 30.19 178.193 30.07C178.397 29.944 178.598 29.791 178.796 29.611C178.856 29.557 178.919 29.515 178.985 29.485C179.051 29.449 179.123 29.431 179.201 29.431ZM182.206 32.5V19.126H184.429V24.265C184.789 23.923 185.185 23.647 185.617 23.437C186.049 23.227 186.556 23.122 187.138 23.122C187.642 23.122 188.089 23.209 188.479 23.383C188.869 23.551 189.193 23.791 189.451 24.103C189.715 24.409 189.913 24.778 190.045 25.21C190.183 25.636 190.252 26.107 190.252 26.623V32.5H188.029V26.623C188.029 26.059 187.897 25.624 187.633 25.318C187.375 25.006 186.985 24.85 186.463 24.85C186.079 24.85 185.719 24.937 185.383 25.111C185.047 25.285 184.729 25.522 184.429 25.822V32.5H182.206ZM194.47 23.266V29.134C194.47 29.698 194.599 30.136 194.857 30.448C195.121 30.754 195.514 30.907 196.036 30.907C196.42 30.907 196.78 30.823 197.116 30.655C197.452 30.481 197.77 30.244 198.07 29.944V23.266H200.293V32.5H198.934C198.646 32.5 198.457 32.365 198.367 32.095L198.214 31.357C198.022 31.549 197.824 31.726 197.62 31.888C197.416 32.044 197.197 32.179 196.963 32.293C196.735 32.401 196.486 32.485 196.216 32.545C195.952 32.611 195.667 32.644 195.361 32.644C194.857 32.644 194.41 32.56 194.02 32.392C193.636 32.218 193.312 31.975 193.048 31.663C192.784 31.351 192.583 30.982 192.445 30.556C192.313 30.124 192.247 29.65 192.247 29.134V23.266H194.47ZM202.667 32.5V23.266H203.972C204.2 23.266 204.359 23.308 204.449 23.392C204.539 23.476 204.599 23.62 204.629 23.824L204.764 24.94C205.094 24.37 205.481 23.92 205.925 23.59C206.369 23.26 206.867 23.095 207.419 23.095C207.875 23.095 208.253 23.2 208.553 23.41L208.265 25.075C208.247 25.183 208.208 25.261 208.148 25.309C208.088 25.351 208.007 25.372 207.905 25.372C207.815 25.372 207.692 25.351 207.536 25.309C207.38 25.267 207.173 25.246 206.915 25.246C206.453 25.246 206.057 25.375 205.727 25.633C205.397 25.885 205.118 26.257 204.89 26.749V32.5H202.667ZM216.503 25.219C216.437 25.303 216.371 25.369 216.305 25.417C216.245 25.465 216.155 25.489 216.035 25.489C215.921 25.489 215.81 25.456 215.702 25.39C215.594 25.318 215.465 25.24 215.315 25.156C215.165 25.066 214.985 24.988 214.775 24.922C214.571 24.85 214.316 24.814 214.01 24.814C213.62 24.814 213.278 24.886 212.984 25.03C212.69 25.168 212.444 25.369 212.246 25.633C212.054 25.897 211.91 26.218 211.814 26.596C211.718 26.968 211.67 27.391 211.67 27.865C211.67 28.357 211.721 28.795 211.823 29.179C211.931 29.563 212.084 29.887 212.282 30.151C212.48 30.409 212.72 30.607 213.002 30.745C213.284 30.877 213.602 30.943 213.956 30.943C214.31 30.943 214.595 30.901 214.811 30.817C215.033 30.727 215.219 30.631 215.369 30.529C215.519 30.421 215.648 30.325 215.756 30.241C215.87 30.151 215.996 30.106 216.134 30.106C216.314 30.106 216.449 30.175 216.539 30.313L217.178 31.123C216.932 31.411 216.665 31.654 216.377 31.852C216.089 32.044 215.789 32.2 215.477 32.32C215.171 32.434 214.853 32.515 214.523 32.563C214.193 32.611 213.866 32.635 213.542 32.635C212.972 32.635 212.435 32.53 211.931 32.32C211.427 32.104 210.986 31.792 210.608 31.384C210.236 30.976 209.939 30.478 209.717 29.89C209.501 29.296 209.393 28.621 209.393 27.865C209.393 27.187 209.489 26.56 209.681 25.984C209.879 25.402 210.167 24.901 210.545 24.481C210.923 24.055 211.391 23.722 211.949 23.482C212.507 23.242 213.149 23.122 213.875 23.122C214.565 23.122 215.168 23.233 215.684 23.455C216.206 23.677 216.674 23.995 217.088 24.409L216.503 25.219ZM218.592 32.5V19.126H220.815V24.265C221.175 23.923 221.571 23.647 222.003 23.437C222.435 23.227 222.942 23.122 223.524 23.122C224.028 23.122 224.475 23.209 224.865 23.383C225.255 23.551 225.579 23.791 225.837 24.103C226.101 24.409 226.299 24.778 226.431 25.21C226.569 25.636 226.638 26.107 226.638 26.623V32.5H224.415V26.623C224.415 26.059 224.283 25.624 224.019 25.318C223.761 25.006 223.371 24.85 222.849 24.85C222.465 24.85 222.105 24.937 221.769 25.111C221.433 25.285 221.115 25.522 220.815 25.822V32.5H218.592ZM101.26 52.431C101.392 52.431 101.506 52.482 101.602 52.584L102.556 53.619C102.028 54.273 101.377 54.774 100.603 55.122C99.835 55.47 98.911 55.644 97.831 55.644C96.865 55.644 95.995 55.479 95.221 55.149C94.453 54.819 93.796 54.36 93.25 53.772C92.704 53.184 92.284 52.482 91.99 51.666C91.702 50.85 91.558 49.959 91.558 48.993C91.558 48.015 91.72 47.121 92.044 46.311C92.368 45.495 92.824 44.793 93.412 44.205C94 43.617 94.702 43.161 95.518 42.837C96.34 42.507 97.246 42.342 98.236 42.342C99.202 42.342 100.045 42.498 100.765 42.81C101.491 43.116 102.112 43.524 102.628 44.034L101.818 45.159C101.77 45.231 101.707 45.294 101.629 45.348C101.557 45.402 101.455 45.429 101.323 45.429C101.185 45.429 101.044 45.375 100.9 45.267C100.756 45.159 100.573 45.042 100.351 44.916C100.129 44.79 99.847 44.673 99.505 44.565C99.169 44.457 98.74 44.403 98.218 44.403C97.606 44.403 97.042 44.511 96.526 44.727C96.016 44.937 95.575 45.24 95.203 45.636C94.837 46.032 94.549 46.515 94.339 47.085C94.135 47.649 94.033 48.285 94.033 48.993C94.033 49.725 94.135 50.376 94.339 50.946C94.549 51.516 94.831 51.996 95.185 52.386C95.539 52.776 95.956 53.076 96.436 53.286C96.916 53.49 97.432 53.592 97.984 53.592C98.314 53.592 98.611 53.574 98.875 53.538C99.145 53.502 99.391 53.445 99.613 53.367C99.841 53.289 100.054 53.19 100.252 53.07C100.456 52.944 100.657 52.791 100.855 52.611C100.915 52.557 100.978 52.515 101.044 52.485C101.11 52.449 101.182 52.431 101.26 52.431ZM124.469 55.5H122.597C122.387 55.5 122.213 55.449 122.075 55.347C121.943 55.239 121.847 55.107 121.787 54.951L120.815 52.296H115.424L114.452 54.951C114.404 55.089 114.308 55.215 114.164 55.329C114.026 55.443 113.855 55.5 113.651 55.5H111.77L116.882 42.486H119.357L124.469 55.5ZM116.045 50.586H120.194L118.61 46.257C118.538 46.065 118.457 45.84 118.367 45.582C118.283 45.318 118.199 45.033 118.115 44.727C118.031 45.033 117.947 45.318 117.863 45.582C117.785 45.846 117.707 46.077 117.629 46.275L116.045 50.586ZM136.87 53.502H142.081V55.5H134.449V42.486H136.87V53.502ZM157.644 53.718C158.19 53.718 158.664 53.67 159.066 53.574C159.474 53.472 159.861 53.334 160.227 53.16V50.793H158.598C158.442 50.793 158.319 50.751 158.229 50.667C158.139 50.577 158.094 50.469 158.094 50.343V48.975H162.423V54.24C162.093 54.48 161.748 54.69 161.388 54.87C161.034 55.044 160.653 55.188 160.245 55.302C159.843 55.416 159.411 55.5 158.949 55.554C158.487 55.614 157.989 55.644 157.455 55.644C156.507 55.644 155.634 55.479 154.836 55.149C154.038 54.819 153.348 54.36 152.766 53.772C152.184 53.184 151.728 52.482 151.398 51.666C151.074 50.85 150.912 49.959 150.912 48.993C150.912 48.015 151.071 47.118 151.389 46.302C151.707 45.486 152.157 44.784 152.739 44.196C153.327 43.608 154.038 43.152 154.872 42.828C155.706 42.504 156.642 42.342 157.68 42.342C158.742 42.342 159.66 42.501 160.434 42.819C161.214 43.131 161.874 43.539 162.414 44.043L161.712 45.141C161.574 45.363 161.391 45.474 161.163 45.474C161.019 45.474 160.872 45.426 160.722 45.33C160.53 45.216 160.332 45.102 160.128 44.988C159.93 44.874 159.708 44.775 159.462 44.691C159.222 44.607 158.949 44.538 158.643 44.484C158.343 44.43 157.995 44.403 157.599 44.403C156.957 44.403 156.375 44.511 155.853 44.727C155.337 44.943 154.896 45.252 154.53 45.654C154.164 46.056 153.882 46.539 153.684 47.103C153.486 47.667 153.387 48.297 153.387 48.993C153.387 49.743 153.492 50.412 153.702 51C153.912 51.582 154.206 52.074 154.584 52.476C154.962 52.878 155.412 53.187 155.934 53.403C156.456 53.613 157.026 53.718 157.644 53.718ZM184.754 55.5H182.882C182.672 55.5 182.498 55.449 182.36 55.347C182.228 55.239 182.132 55.107 182.072 54.951L181.1 52.296H175.709L174.737 54.951C174.689 55.089 174.593 55.215 174.449 55.329C174.311 55.443 174.14 55.5 173.936 55.5H172.055L177.167 42.486H179.642L184.754 55.5ZM176.33 50.586H180.479L178.895 46.257C178.823 46.065 178.742 45.84 178.652 45.582C178.568 45.318 178.484 45.033 178.4 44.727C178.316 45.033 178.232 45.318 178.148 45.582C178.07 45.846 177.992 46.077 177.914 46.275L176.33 50.586ZM197.237 50.415V55.5H194.816V42.486H198.785C199.673 42.486 200.432 42.579 201.062 42.765C201.698 42.945 202.217 43.2 202.619 43.53C203.027 43.86 203.324 44.256 203.51 44.718C203.702 45.174 203.798 45.678 203.798 46.23C203.798 46.668 203.732 47.082 203.6 47.472C203.474 47.862 203.288 48.216 203.042 48.534C202.802 48.852 202.502 49.131 202.142 49.371C201.788 49.611 201.383 49.803 200.927 49.947C201.233 50.121 201.497 50.37 201.719 50.694L204.977 55.5H202.799C202.589 55.5 202.409 55.458 202.259 55.374C202.115 55.29 201.992 55.17 201.89 55.014L199.154 50.847C199.052 50.691 198.938 50.58 198.812 50.514C198.692 50.448 198.512 50.415 198.272 50.415H197.237ZM197.237 48.678H198.749C199.205 48.678 199.601 48.621 199.937 48.507C200.279 48.393 200.558 48.237 200.774 48.039C200.996 47.835 201.161 47.595 201.269 47.319C201.377 47.043 201.431 46.74 201.431 46.41C201.431 45.75 201.212 45.243 200.774 44.889C200.342 44.535 199.679 44.358 198.785 44.358H197.237V48.678ZM220.957 50.442V55.5H218.536V50.442L213.793 42.486H215.926C216.136 42.486 216.301 42.537 216.421 42.639C216.547 42.741 216.652 42.87 216.736 43.026L219.121 47.373C219.259 47.631 219.379 47.877 219.481 48.111C219.583 48.339 219.676 48.564 219.76 48.786C219.838 48.558 219.925 48.33 220.021 48.102C220.123 47.868 220.243 47.625 220.381 47.373L222.748 43.026C222.814 42.894 222.913 42.771 223.045 42.657C223.177 42.543 223.345 42.486 223.549 42.486H225.691L220.957 50.442Z" fill="#171A3E"/>
</svg>
