<svg width="186" height="48" viewBox="0 0 186 48" fill="none" xmlns="http://www.w3.org/2000/svg">
<rect x="25.6358" y="25.6359" width="21.5853" height="21.5851" rx="3.50685" stroke="white" stroke-width="1.55776"/>
<rect x="0.778878" y="0.778878" width="21.5853" height="21.5851" rx="3.50685" stroke="white" stroke-width="1.55776"/>
<rect x="0.778878" y="25.6359" width="21.5853" height="21.5851" rx="3.50685" stroke="white" stroke-width="1.55776"/>
<rect x="25.6358" y="0.778878" width="21.5853" height="21.5851" rx="3.50685" stroke="white" stroke-width="1.55776"/>
<rect x="13.6358" y="13.6361" width="20.2995" height="20.2994" rx="3.50685" stroke="white" stroke-width="1.55776"/>
<path d="M22.2856 13.2858H23.1428" stroke="white" stroke-width="1.55776" stroke-linecap="square"/>
<path d="M24.8569 34.2858H25.7141" stroke="white" stroke-width="1.55776" stroke-linecap="square"/>
<path d="M34.2856 22.2856L34.2856 23.1428" stroke="white" stroke-width="1.55776" stroke-linecap="square"/>
<path d="M13.2856 24.8571L13.2856 25.7142" stroke="white" stroke-width="1.55776" stroke-linecap="square"/>
<path d="M66.296 8.432C66.392 8.432 66.472 8.43733 66.536 8.448C66.6 8.45333 66.656 8.46933 66.704 8.496C66.7573 8.51733 66.808 8.552 66.856 8.6C66.904 8.64267 66.9573 8.70133 67.016 8.776L73.088 16.512C73.0667 16.3253 73.0507 16.144 73.04 15.968C73.0347 15.7867 73.032 15.6187 73.032 15.464V8.432H74.928V20H73.816C73.6453 20 73.504 19.9733 73.392 19.92C73.28 19.8667 73.1707 19.7707 73.064 19.632L67.016 11.928C67.032 12.0987 67.0427 12.2693 67.048 12.44C67.0587 12.6053 67.064 12.7573 67.064 12.896V20H65.168V8.432H66.296ZM80.5418 11.664C81.0591 11.664 81.5338 11.7467 81.9658 11.912C82.4031 12.0773 82.7791 12.32 83.0938 12.64C83.4084 12.9547 83.6538 13.344 83.8298 13.808C84.0058 14.2667 84.0938 14.792 84.0938 15.384C84.0938 15.5333 84.0858 15.6587 84.0698 15.76C84.0591 15.856 84.0351 15.9333 83.9978 15.992C83.9658 16.0453 83.9204 16.0853 83.8618 16.112C83.8031 16.1333 83.7284 16.144 83.6378 16.144H78.5658C78.6244 16.9867 78.8511 17.6053 79.2458 18C79.6404 18.3947 80.1631 18.592 80.8138 18.592C81.1338 18.592 81.4084 18.5547 81.6378 18.48C81.8724 18.4053 82.0751 18.3227 82.2458 18.232C82.4218 18.1413 82.5738 18.0587 82.7018 17.984C82.8351 17.9093 82.9631 17.872 83.0858 17.872C83.1658 17.872 83.2351 17.888 83.2938 17.92C83.3524 17.952 83.4031 17.9973 83.4458 18.056L84.0218 18.776C83.8031 19.032 83.5578 19.248 83.2858 19.424C83.0138 19.5947 82.7284 19.7333 82.4298 19.84C82.1364 19.9413 81.8351 20.0133 81.5258 20.056C81.2218 20.0987 80.9258 20.12 80.6378 20.12C80.0671 20.12 79.5364 20.0267 79.0458 19.84C78.5551 19.648 78.1284 19.368 77.7658 19C77.4031 18.6267 77.1178 18.168 76.9098 17.624C76.7018 17.0747 76.5978 16.44 76.5978 15.72C76.5978 15.16 76.6884 14.6347 76.8698 14.144C77.0511 13.648 77.3098 13.2187 77.6458 12.856C77.9871 12.488 78.4004 12.1973 78.8858 11.984C79.3764 11.7707 79.9284 11.664 80.5418 11.664ZM80.5818 13.08C80.0058 13.08 79.5551 13.2427 79.2298 13.568C78.9044 13.8933 78.6964 14.3547 78.6058 14.952H82.3178C82.3178 14.696 82.2831 14.456 82.2138 14.232C82.1444 14.0027 82.0378 13.8027 81.8938 13.632C81.7498 13.4613 81.5684 13.328 81.3498 13.232C81.1311 13.1307 80.8751 13.08 80.5818 13.08ZM84.6966 11.792H86.2646C86.414 11.792 86.5393 11.8267 86.6406 11.896C86.742 11.9653 86.806 12.0533 86.8326 12.16L88.0086 16.544C88.0726 16.784 88.1233 17.0187 88.1606 17.248C88.2033 17.4773 88.2433 17.7067 88.2806 17.936C88.3393 17.7067 88.4006 17.4773 88.4646 17.248C88.534 17.0187 88.606 16.784 88.6806 16.544L90.0406 12.144C90.0726 12.0373 90.1366 11.9493 90.2326 11.88C90.3286 11.8107 90.4406 11.776 90.5686 11.776H91.4406C91.5846 11.776 91.7046 11.8107 91.8006 11.88C91.8966 11.9493 91.9606 12.0373 91.9926 12.144L93.3366 16.624C93.406 16.8533 93.4673 17.0773 93.5206 17.296C93.5793 17.5093 93.6353 17.7253 93.6886 17.944C93.726 17.7147 93.766 17.4853 93.8086 17.256C93.8566 17.0267 93.9153 16.7893 93.9846 16.544L95.2006 12.16C95.2273 12.0533 95.2913 11.9653 95.3926 11.896C95.494 11.8267 95.6113 11.792 95.7446 11.792H97.2406L94.6406 20H93.0486C92.878 20 92.7553 19.8827 92.6806 19.648L91.2006 14.904C91.1526 14.7493 91.1073 14.5947 91.0646 14.44C91.0273 14.28 90.9953 14.1227 90.9686 13.968C90.9366 14.128 90.902 14.288 90.8646 14.448C90.8273 14.6027 90.7846 14.76 90.7366 14.92L89.2406 19.648C89.166 19.8827 89.022 20 88.8086 20H87.2966L84.6966 11.792ZM109.511 17.272C109.628 17.272 109.729 17.3173 109.815 17.408L110.663 18.328C110.193 18.9093 109.615 19.3547 108.927 19.664C108.244 19.9733 107.423 20.128 106.463 20.128C105.604 20.128 104.831 19.9813 104.143 19.688C103.46 19.3947 102.876 18.9867 102.391 18.464C101.905 17.9413 101.532 17.3173 101.271 16.592C101.015 15.8667 100.887 15.0747 100.887 14.216C100.887 13.3467 101.031 12.552 101.319 11.832C101.607 11.1067 102.012 10.4827 102.535 9.96C103.057 9.43733 103.681 9.032 104.407 8.744C105.137 8.45067 105.943 8.304 106.823 8.304C107.681 8.304 108.431 8.44267 109.071 8.72C109.716 8.992 110.268 9.35467 110.727 9.808L110.007 10.808C109.964 10.872 109.908 10.928 109.839 10.976C109.775 11.024 109.684 11.048 109.567 11.048C109.444 11.048 109.319 11 109.191 10.904C109.063 10.808 108.9 10.704 108.703 10.592C108.505 10.48 108.255 10.376 107.951 10.28C107.652 10.184 107.271 10.136 106.807 10.136C106.263 10.136 105.761 10.232 105.303 10.424C104.849 10.6107 104.457 10.88 104.127 11.232C103.801 11.584 103.545 12.0133 103.359 12.52C103.177 13.0213 103.087 13.5867 103.087 14.216C103.087 14.8667 103.177 15.4453 103.359 15.952C103.545 16.4587 103.796 16.8853 104.111 17.232C104.425 17.5787 104.796 17.8453 105.223 18.032C105.649 18.2133 106.108 18.304 106.599 18.304C106.892 18.304 107.156 18.288 107.391 18.256C107.631 18.224 107.849 18.1733 108.047 18.104C108.249 18.0347 108.439 17.9467 108.615 17.84C108.796 17.728 108.975 17.592 109.151 17.432C109.204 17.384 109.26 17.3467 109.319 17.32C109.377 17.288 109.441 17.272 109.511 17.272ZM114.285 11.792V20H112.309V11.792H114.285ZM114.581 9.4C114.581 9.57067 114.546 9.73067 114.477 9.88C114.408 10.0293 114.314 10.16 114.197 10.272C114.085 10.384 113.952 10.4747 113.797 10.544C113.642 10.608 113.477 10.64 113.301 10.64C113.13 10.64 112.968 10.608 112.813 10.544C112.664 10.4747 112.533 10.384 112.421 10.272C112.309 10.16 112.218 10.0293 112.149 9.88C112.085 9.73067 112.053 9.57067 112.053 9.4C112.053 9.224 112.085 9.05867 112.149 8.904C112.218 8.74933 112.309 8.616 112.421 8.504C112.533 8.392 112.664 8.304 112.813 8.24C112.968 8.17067 113.13 8.136 113.301 8.136C113.477 8.136 113.642 8.17067 113.797 8.24C113.952 8.304 114.085 8.392 114.197 8.504C114.314 8.616 114.408 8.74933 114.477 8.904C114.546 9.05867 114.581 9.224 114.581 9.4ZM119.221 20.128C118.511 20.128 117.965 19.928 117.581 19.528C117.197 19.1227 117.005 18.5653 117.005 17.856V13.272H116.173C116.066 13.272 115.973 13.2373 115.893 13.168C115.818 13.0987 115.781 12.9947 115.781 12.856V12.072L117.101 11.856L117.517 9.616C117.538 9.50933 117.586 9.42667 117.661 9.368C117.741 9.30933 117.839 9.28 117.957 9.28H118.981V11.864H121.141V13.272H118.981V17.72C118.981 17.976 119.045 18.176 119.173 18.32C119.301 18.464 119.471 18.536 119.685 18.536C119.807 18.536 119.909 18.5227 119.989 18.496C120.074 18.464 120.146 18.432 120.205 18.4C120.269 18.368 120.325 18.3387 120.373 18.312C120.421 18.28 120.469 18.264 120.517 18.264C120.575 18.264 120.623 18.28 120.661 18.312C120.698 18.3387 120.738 18.3813 120.781 18.44L121.373 19.4C121.085 19.64 120.754 19.8213 120.381 19.944C120.007 20.0667 119.621 20.128 119.221 20.128ZM125.624 22.256C125.566 22.3947 125.488 22.4987 125.392 22.568C125.302 22.6427 125.16 22.68 124.968 22.68H123.496L125.032 19.392L121.712 11.792H123.44C123.6 11.792 123.723 11.8293 123.808 11.904C123.894 11.9787 123.958 12.064 124 12.16L125.752 16.416C125.811 16.5547 125.862 16.6987 125.904 16.848C125.947 16.9973 125.984 17.1467 126.016 17.296C126.059 17.1413 126.104 16.992 126.152 16.848C126.206 16.704 126.262 16.5573 126.32 16.408L127.968 12.16C128.011 12.0533 128.08 11.9653 128.176 11.896C128.278 11.8267 128.39 11.792 128.512 11.792H130.096L125.624 22.256ZM142.401 17.272C142.519 17.272 142.62 17.3173 142.705 17.408L143.553 18.328C143.084 18.9093 142.505 19.3547 141.817 19.664C141.135 19.9733 140.313 20.128 139.353 20.128C138.495 20.128 137.721 19.9813 137.033 19.688C136.351 19.3947 135.767 18.9867 135.281 18.464C134.796 17.9413 134.423 17.3173 134.161 16.592C133.905 15.8667 133.777 15.0747 133.777 14.216C133.777 13.3467 133.921 12.552 134.209 11.832C134.497 11.1067 134.903 10.4827 135.425 9.96C135.948 9.43733 136.572 9.032 137.297 8.744C138.028 8.45067 138.833 8.304 139.713 8.304C140.572 8.304 141.321 8.44267 141.961 8.72C142.607 8.992 143.159 9.35467 143.617 9.808L142.897 10.808C142.855 10.872 142.799 10.928 142.729 10.976C142.665 11.024 142.575 11.048 142.457 11.048C142.335 11.048 142.209 11 142.081 10.904C141.953 10.808 141.791 10.704 141.593 10.592C141.396 10.48 141.145 10.376 140.841 10.28C140.543 10.184 140.161 10.136 139.697 10.136C139.153 10.136 138.652 10.232 138.193 10.424C137.74 10.6107 137.348 10.88 137.017 11.232C136.692 11.584 136.436 12.0133 136.249 12.52C136.068 13.0213 135.977 13.5867 135.977 14.216C135.977 14.8667 136.068 15.4453 136.249 15.952C136.436 16.4587 136.687 16.8853 137.001 17.232C137.316 17.5787 137.687 17.8453 138.113 18.032C138.54 18.2133 138.999 18.304 139.489 18.304C139.783 18.304 140.047 18.288 140.281 18.256C140.521 18.224 140.74 18.1733 140.937 18.104C141.14 18.0347 141.329 17.9467 141.505 17.84C141.687 17.728 141.865 17.592 142.041 17.432C142.095 17.384 142.151 17.3467 142.209 17.32C142.268 17.288 142.332 17.272 142.401 17.272ZM145.072 20V8.112H147.048V12.68C147.368 12.376 147.72 12.1307 148.104 11.944C148.488 11.7573 148.938 11.664 149.456 11.664C149.904 11.664 150.301 11.7413 150.648 11.896C150.994 12.0453 151.282 12.2587 151.512 12.536C151.746 12.808 151.922 13.136 152.04 13.52C152.162 13.8987 152.224 14.3173 152.224 14.776V20H150.248V14.776C150.248 14.2747 150.13 13.888 149.896 13.616C149.666 13.3387 149.32 13.2 148.856 13.2C148.514 13.2 148.194 13.2773 147.896 13.432C147.597 13.5867 147.314 13.7973 147.048 14.064V20H145.072ZM155.973 11.792V17.008C155.973 17.5093 156.088 17.8987 156.317 18.176C156.552 18.448 156.901 18.584 157.365 18.584C157.707 18.584 158.027 18.5093 158.325 18.36C158.624 18.2053 158.907 17.9947 159.173 17.728V11.792H161.149V20H159.941C159.685 20 159.517 19.88 159.437 19.64L159.301 18.984C159.131 19.1547 158.955 19.312 158.773 19.456C158.592 19.5947 158.397 19.7147 158.189 19.816C157.987 19.912 157.765 19.9867 157.525 20.04C157.291 20.0987 157.037 20.128 156.765 20.128C156.317 20.128 155.92 20.0533 155.573 19.904C155.232 19.7493 154.944 19.5333 154.709 19.256C154.475 18.9787 154.296 18.6507 154.173 18.272C154.056 17.888 153.997 17.4667 153.997 17.008V11.792H155.973ZM163.259 20V11.792H164.419C164.622 11.792 164.763 11.8293 164.843 11.904C164.923 11.9787 164.976 12.1067 165.003 12.288L165.123 13.28C165.416 12.7733 165.76 12.3733 166.155 12.08C166.55 11.7867 166.992 11.64 167.483 11.64C167.888 11.64 168.224 11.7333 168.491 11.92L168.235 13.4C168.219 13.496 168.184 13.5653 168.131 13.608C168.078 13.6453 168.006 13.664 167.915 13.664C167.835 13.664 167.726 13.6453 167.587 13.608C167.448 13.5707 167.264 13.552 167.035 13.552C166.624 13.552 166.272 13.6667 165.979 13.896C165.686 14.12 165.438 14.4507 165.235 14.888V20H163.259ZM175.558 13.528C175.5 13.6027 175.441 13.6613 175.382 13.704C175.329 13.7467 175.249 13.768 175.142 13.768C175.041 13.768 174.942 13.7387 174.846 13.68C174.75 13.616 174.636 13.5467 174.502 13.472C174.369 13.392 174.209 13.3227 174.022 13.264C173.841 13.2 173.614 13.168 173.342 13.168C172.996 13.168 172.692 13.232 172.43 13.36C172.169 13.4827 171.95 13.6613 171.774 13.896C171.604 14.1307 171.476 14.416 171.39 14.752C171.305 15.0827 171.262 15.4587 171.262 15.88C171.262 16.3173 171.308 16.7067 171.398 17.048C171.494 17.3893 171.63 17.6773 171.806 17.912C171.982 18.1413 172.196 18.3173 172.446 18.44C172.697 18.5573 172.98 18.616 173.294 18.616C173.609 18.616 173.862 18.5787 174.054 18.504C174.252 18.424 174.417 18.3387 174.55 18.248C174.684 18.152 174.798 18.0667 174.894 17.992C174.996 17.912 175.108 17.872 175.23 17.872C175.39 17.872 175.51 17.9333 175.59 18.056L176.158 18.776C175.94 19.032 175.702 19.248 175.446 19.424C175.19 19.5947 174.924 19.7333 174.646 19.84C174.374 19.9413 174.092 20.0133 173.798 20.056C173.505 20.0987 173.214 20.12 172.926 20.12C172.42 20.12 171.942 20.0267 171.494 19.84C171.046 19.648 170.654 19.3707 170.318 19.008C169.988 18.6453 169.724 18.2027 169.526 17.68C169.334 17.152 169.238 16.552 169.238 15.88C169.238 15.2773 169.324 14.72 169.494 14.208C169.67 13.6907 169.926 13.2453 170.262 12.872C170.598 12.4933 171.014 12.1973 171.51 11.984C172.006 11.7707 172.577 11.664 173.222 11.664C173.836 11.664 174.372 11.7627 174.83 11.96C175.294 12.1573 175.71 12.44 176.078 12.808L175.558 13.528ZM177.415 20V8.112H179.391V12.68C179.711 12.376 180.063 12.1307 180.447 11.944C180.831 11.7573 181.282 11.664 181.799 11.664C182.247 11.664 182.645 11.7413 182.991 11.896C183.338 12.0453 183.626 12.2587 183.855 12.536C184.09 12.808 184.266 13.136 184.383 13.52C184.506 13.8987 184.567 14.3173 184.567 14.776V20H182.591V14.776C182.591 14.2747 182.474 13.888 182.239 13.616C182.01 13.3387 181.663 13.2 181.199 13.2C180.858 13.2 180.538 13.2773 180.239 13.432C179.941 13.5867 179.658 13.7973 179.391 14.064V20H177.415ZM73.12 37.272C73.2373 37.272 73.3387 37.3173 73.424 37.408L74.272 38.328C73.8027 38.9093 73.224 39.3547 72.536 39.664C71.8533 39.9733 71.032 40.128 70.072 40.128C69.2133 40.128 68.44 39.9813 67.752 39.688C67.0693 39.3947 66.4853 38.9867 66 38.464C65.5147 37.9413 65.1413 37.3173 64.88 36.592C64.624 35.8667 64.496 35.0747 64.496 34.216C64.496 33.3467 64.64 32.552 64.928 31.832C65.216 31.1067 65.6213 30.4827 66.144 29.96C66.6667 29.4373 67.2907 29.032 68.016 28.744C68.7467 28.4507 69.552 28.304 70.432 28.304C71.2907 28.304 72.04 28.4427 72.68 28.72C73.3253 28.992 73.8773 29.3547 74.336 29.808L73.616 30.808C73.5733 30.872 73.5173 30.928 73.448 30.976C73.384 31.024 73.2933 31.048 73.176 31.048C73.0533 31.048 72.928 31 72.8 30.904C72.672 30.808 72.5093 30.704 72.312 30.592C72.1147 30.48 71.864 30.376 71.56 30.28C71.2613 30.184 70.88 30.136 70.416 30.136C69.872 30.136 69.3707 30.232 68.912 30.424C68.4587 30.6107 68.0667 30.88 67.736 31.232C67.4107 31.584 67.1547 32.0133 66.968 32.52C66.7867 33.0213 66.696 33.5867 66.696 34.216C66.696 34.8667 66.7867 35.4453 66.968 35.952C67.1547 36.4587 67.4053 36.8853 67.72 37.232C68.0347 37.5787 68.4053 37.8453 68.832 38.032C69.2587 38.2133 69.7173 38.304 70.208 38.304C70.5013 38.304 70.7653 38.288 71 38.256C71.24 38.224 71.4587 38.1733 71.656 38.104C71.8587 38.0347 72.048 37.9467 72.224 37.84C72.4053 37.728 72.584 37.592 72.76 37.432C72.8133 37.384 72.8693 37.3467 72.928 37.32C72.9867 37.288 73.0507 37.272 73.12 37.272ZM93.7504 40H92.0864C91.8997 40 91.745 39.9547 91.6224 39.864C91.505 39.768 91.4197 39.6507 91.3664 39.512L90.5024 37.152H85.7104L84.8464 39.512C84.8037 39.6347 84.7184 39.7467 84.5904 39.848C84.4677 39.9493 84.3157 40 84.1344 40H82.4624L87.0064 28.432H89.2064L93.7504 40ZM86.2624 35.632H89.9504L88.5424 31.784C88.4784 31.6133 88.4064 31.4133 88.3264 31.184C88.2517 30.9493 88.177 30.696 88.1024 30.424C88.0277 30.696 87.953 30.9493 87.8784 31.184C87.809 31.4187 87.7397 31.624 87.6704 31.8L86.2624 35.632ZM104.774 38.224H109.406V40H102.622V28.432H104.774V38.224ZM123.239 38.416C123.724 38.416 124.145 38.3733 124.503 38.288C124.865 38.1973 125.209 38.0747 125.535 37.92V35.816H124.087C123.948 35.816 123.839 35.7787 123.759 35.704C123.679 35.624 123.639 35.528 123.639 35.416V34.2H127.487V38.88C127.193 39.0933 126.887 39.28 126.567 39.44C126.252 39.5947 125.913 39.7227 125.551 39.824C125.193 39.9253 124.809 40 124.399 40.048C123.988 40.1013 123.545 40.128 123.071 40.128C122.228 40.128 121.452 39.9813 120.743 39.688C120.033 39.3947 119.42 38.9867 118.903 38.464C118.385 37.9413 117.98 37.3173 117.687 36.592C117.399 35.8667 117.255 35.0747 117.255 34.216C117.255 33.3467 117.396 32.5493 117.679 31.824C117.961 31.0987 118.361 30.4747 118.879 29.952C119.401 29.4293 120.033 29.024 120.775 28.736C121.516 28.448 122.348 28.304 123.271 28.304C124.215 28.304 125.031 28.4453 125.719 28.728C126.412 29.0053 126.999 29.368 127.479 29.816L126.855 30.792C126.732 30.9893 126.569 31.088 126.367 31.088C126.239 31.088 126.108 31.0453 125.975 30.96C125.804 30.8587 125.628 30.7573 125.447 30.656C125.271 30.5547 125.073 30.4667 124.855 30.392C124.641 30.3173 124.399 30.256 124.127 30.208C123.86 30.16 123.551 30.136 123.199 30.136C122.628 30.136 122.111 30.232 121.647 30.424C121.188 30.616 120.796 30.8907 120.471 31.248C120.145 31.6053 119.895 32.0347 119.719 32.536C119.543 33.0373 119.455 33.5973 119.455 34.216C119.455 34.8827 119.548 35.4773 119.735 36C119.921 36.5173 120.183 36.9547 120.519 37.312C120.855 37.6693 121.255 37.944 121.719 38.136C122.183 38.3227 122.689 38.416 123.239 38.416ZM147.337 40H145.673C145.487 40 145.332 39.9547 145.209 39.864C145.092 39.768 145.007 39.6507 144.953 39.512L144.089 37.152H139.297L138.433 39.512C138.391 39.6347 138.305 39.7467 138.177 39.848C138.055 39.9493 137.903 40 137.721 40H136.049L140.593 28.432H142.793L147.337 40ZM139.849 35.632H143.537L142.129 31.784C142.065 31.6133 141.993 31.4133 141.913 31.184C141.839 30.9493 141.764 30.696 141.689 30.424C141.615 30.696 141.54 30.9493 141.465 31.184C141.396 31.4187 141.327 31.624 141.257 31.8L139.849 35.632ZM158.433 35.48V40H156.281V28.432H159.809C160.598 28.432 161.273 28.5147 161.833 28.68C162.398 28.84 162.859 29.0667 163.217 29.36C163.579 29.6533 163.843 30.0053 164.009 30.416C164.179 30.8213 164.265 31.2693 164.265 31.76C164.265 32.1493 164.206 32.5173 164.089 32.864C163.977 33.2107 163.811 33.5253 163.593 33.808C163.379 34.0907 163.113 34.3387 162.793 34.552C162.478 34.7653 162.118 34.936 161.713 35.064C161.985 35.2187 162.219 35.44 162.417 35.728L165.313 40H163.377C163.19 40 163.03 39.9627 162.897 39.888C162.769 39.8133 162.659 39.7067 162.569 39.568L160.137 35.864C160.046 35.7253 159.945 35.6267 159.833 35.568C159.726 35.5093 159.566 35.48 159.353 35.48H158.433ZM158.433 33.936H159.777C160.182 33.936 160.534 33.8853 160.833 33.784C161.137 33.6827 161.385 33.544 161.577 33.368C161.774 33.1867 161.921 32.9733 162.017 32.728C162.113 32.4827 162.161 32.2133 162.161 31.92C162.161 31.3333 161.966 30.8827 161.577 30.568C161.193 30.2533 160.603 30.096 159.809 30.096H158.433V33.936ZM179.517 35.504V40H177.365V35.504L173.149 28.432H175.045C175.232 28.432 175.378 28.4773 175.485 28.568C175.597 28.6587 175.69 28.7733 175.765 28.912L177.885 32.776C178.008 33.0053 178.114 33.224 178.205 33.432C178.296 33.6347 178.378 33.8347 178.453 34.032C178.522 33.8293 178.6 33.6267 178.685 33.424C178.776 33.216 178.882 33 179.005 32.776L181.109 28.912C181.168 28.7947 181.256 28.6853 181.373 28.584C181.49 28.4827 181.64 28.432 181.821 28.432H183.725L179.517 35.504Z" fill="white"/>
</svg>
