<svg width="50" height="50" viewBox="0 0 50 50" fill="none" xmlns="http://www.w3.org/2000/svg">
<circle cx="25" cy="25" r="25" fill="white"/>
<path fill-rule="evenodd" clip-rule="evenodd" d="M25 31.5476C28.6162 31.5476 31.5476 28.6162 31.5476 25C31.5476 21.3839 28.6162 18.4524 25 18.4524C21.3839 18.4524 18.4524 21.3839 18.4524 25C18.4524 28.6162 21.3839 31.5476 25 31.5476ZM25 29.3651C27.4107 29.3651 29.3651 27.4107 29.3651 25C29.3651 22.5892 27.4107 20.6349 25 20.6349C22.5892 20.6349 20.6349 22.5892 20.6349 25C20.6349 27.4107 22.5892 29.3651 25 29.3651Z" fill="#434B5F"/>
<path d="M31.5476 17.3611C30.9449 17.3611 30.4563 17.8497 30.4563 18.4524C30.4563 19.055 30.9449 19.5436 31.5476 19.5436C32.1503 19.5436 32.6388 19.055 32.6388 18.4524C32.6388 17.8497 32.1503 17.3611 31.5476 17.3611Z" fill="#434B5F"/>
<path fill-rule="evenodd" clip-rule="evenodd" d="M13.7097 16.5712C12.9961 17.9718 12.9961 19.8053 12.9961 23.4723V26.5278C12.9961 30.1948 12.9961 32.0284 13.7097 33.4289C14.3375 34.661 15.3391 35.6626 16.5712 36.2903C17.9718 37.004 19.8053 37.004 23.4723 37.004H26.5278C30.1948 37.004 32.0284 37.004 33.4289 36.2903C34.661 35.6626 35.6626 34.661 36.2903 33.4289C37.004 32.0284 37.004 30.1948 37.004 26.5278V23.4723C37.004 19.8053 37.004 17.9718 36.2903 16.5712C35.6626 15.3391 34.661 14.3375 33.4289 13.7097C32.0284 12.9961 30.1948 12.9961 26.5278 12.9961H23.4723C19.8053 12.9961 17.9718 12.9961 16.5712 13.7097C15.3391 14.3375 14.3375 15.3391 13.7097 16.5712ZM26.5278 15.1786H23.4723C21.6028 15.1786 20.3319 15.1803 19.3496 15.2606C18.3927 15.3388 17.9034 15.4805 17.562 15.6544C16.7407 16.0729 16.0729 16.7407 15.6544 17.562C15.4805 17.9034 15.3388 18.3927 15.2606 19.3496C15.1803 20.3319 15.1786 21.6028 15.1786 23.4723V26.5278C15.1786 28.3974 15.1803 29.6682 15.2606 30.6505C15.3388 31.6075 15.4805 32.0968 15.6544 32.4382C16.0729 33.2594 16.7407 33.9272 17.562 34.3457C17.9034 34.5196 18.3927 34.6614 19.3496 34.7395C20.3319 34.8197 21.6028 34.8215 23.4723 34.8215H26.5278C28.3974 34.8215 29.6682 34.8197 30.6505 34.7395C31.6075 34.6614 32.0968 34.5196 32.4382 34.3457C33.2594 33.9272 33.9272 33.2594 34.3457 32.4382C34.5196 32.0968 34.6614 31.6075 34.7395 30.6505C34.8197 29.6682 34.8215 28.3974 34.8215 26.5278V23.4723C34.8215 21.6028 34.8197 20.3319 34.7395 19.3496C34.6614 18.3927 34.5196 17.9034 34.3457 17.562C33.9272 16.7407 33.2594 16.0729 32.4382 15.6544C32.0968 15.4805 31.6075 15.3388 30.6505 15.2606C29.6682 15.1803 28.3974 15.1786 26.5278 15.1786Z" fill="#434B5F"/>
</svg>
