<svg width="50" height="50" viewBox="0 0 50 50" fill="none" xmlns="http://www.w3.org/2000/svg">
<circle cx="25" cy="25" r="25" fill="white"/>
<path d="M36.4776 18.7504C36.1901 17.6678 35.3429 16.8151 34.2673 16.5258C32.3177 16 24.5 16 24.5 16C24.5 16 16.6823 16 14.7327 16.5258C13.6571 16.8152 12.8099 17.6678 12.5224 18.7504C12 20.7127 12 24.8068 12 24.8068C12 24.8068 12 28.901 12.5224 30.8632C12.8099 31.9459 13.6571 32.763 14.7327 33.0523C16.6823 33.5781 24.5 33.5781 24.5 33.5781C24.5 33.5781 32.3177 33.5781 34.2673 33.0523C35.3429 32.763 36.1901 31.9459 36.4776 30.8632C37 28.901 37 24.8068 37 24.8068C37 24.8068 37 20.7127 36.4776 18.7504ZM21.9432 28.524V21.0896L28.4772 24.8069L21.9432 28.524Z" fill="#434B5F"/>
</svg>
